PathFileType	4	(X/Y/Z)	/Users/itak/Documents/Research/Walk-IL/dataset/trc/00558_00009.trc
DataRate	CameraRate	NumFrames	NumMarkers	Units	OrigDataRate	OrigDataStartFrame	OrigNumFrames
100.000000	100.000000	4	54	mm	100.000000	114	456
Frame#	Time	RPSI			LPSI			L3			STRN			T10			C7			CLAV			RBAK			LBAK			LSHO			LUPA			LAEL			LAOL			LWTS			LWPS			LFRA			LIFD			LHPS			LHTS			RSHO			RUPA			RAEL			RAOL			RWTS			RWPS			RFRA			RHTS			RHPS			RBHD			LFHD			RFHD			LBHD			LHIP			RHIP			RASI			LASI			LKNE			LTHI			LANK			LTIP			LTOE			LMT1			LMT5			LHEE			RKNE			RTHI			RANK			RTIP			RTOE			RMT1			RMT5			RHEE			RIFD			*53			
		X1	Y1	Z1	X2	Y2	Z2	X3	Y3	Z3	X4	Y4	Z4	X5	Y5	Z5	X6	Y6	Z6	X7	Y7	Z7	X8	Y8	Z8	X9	Y9	Z9	X10	Y10	Z10	X11	Y11	Z11	X12	Y12	Z12	X13	Y13	Z13	X14	Y14	Z14	X15	Y15	Z15	X16	Y16	Z16	X17	Y17	Z17	X18	Y18	Z18	X19	Y19	Z19	X20	Y20	Z20	X21	Y21	Z21	X22	Y22	Z22	X23	Y23	Z23	X24	Y24	Z24	X25	Y25	Z25	X26	Y26	Z26	X27	Y27	Z27	X28	Y28	Z28	X29	Y29	Z29	X30	Y30	Z30	X31	Y31	Z31	X32	Y32	Z32	X33	Y33	Z33	X34	Y34	Z34	X35	Y35	Z35	X36	Y36	Z36	X37	Y37	Z37	X38	Y38	Z38	X39	Y39	Z39	X40	Y40	Z40	X41	Y41	Z41	X42	Y42	Z42	X43	Y43	Z43	X44	Y44	Z44	X45	Y45	Z45	X46	Y46	Z46	X47	Y47	Z47	X48	Y48	Z48	X49	Y49	Z49	X50	Y50	Z50	X51	Y51	Z51	X52	Y52	Z52	X53	Y53	Z53	X54	Y54	Z54	

115	1.14	-1498.753784179688	981.6416625976562	-335.7888793945312	-1439.274658203125	991.2230834960938	-455.7957153320312	-1452.61572265625	1087.406127929688	-394.4136352539062	-1196.642822265625	1239.911743164062	-320.0481567382812	-1440.383544921875	1214.154418945312	-394.6967468261719	-1347.165649414062	1476.21484375	-366.5085144042969	-1195.081665039062	1350.940185546875	-326.2631530761719	-1461.291137695312	1369.894653320312	-308.0110168457031	-1362.75830078125	1426.651123046875	-463.5781860351562	-1243.87744140625	1436.37255859375	-512.44921875	-1246.052490234375	1320.195678710938	-603.138427734375	-1235.139038085938	1106.169067382812	-656.52099609375	-1333.734619140625	1095.456909179688	-634.3915405273438	-1136.465454101562	877.0922241210938	-583.6671142578125	-1160.134399414062	846.9942016601562	-662.3934326171875	-1204.684448242188	1022.770751953125	-658.0537719726562	-1123.810546875	713.7376098632812	-573.4741821289062	-1144.484619140625	789.7275390625	-651.09130859375	-1104.575073242188	803.9617309570312	-597.5938720703125	-1343.353271484375	1437.169311523438	-202.7408905029297	-1393.568603515625	1380.71630859375	-146.3233032226562	-1469.973999023438	1103.763793945312	-103.5105590820312	-1520.783569335938	1095.00634765625	-141.4503021240234	-1354.6923828125	874.9034423828125	-113.7027740478516	-1416.32275390625	858.380126953125	-60.29100036621094	-1470.591918945312	1047.741821289062	-93.11801147460938	-1329.008056640625	791.0042724609375	-78.77893829345703	-1396.285400390625	788.0718383789062	-47.04446411132812	-1264.170776367188	1640.2197265625	-279.2188415527344	-1076.791137695312	1635.240844726562	-368.8915710449219	-1130.598510742188	1639.576904296875	-235.3992156982422	-1195.650634765625	1632.662963867188	-429.929443359375	-1272.79638671875	907.08203125	-525.0411987304688	-1434.448608398438	902.7799072265625	-176.2779235839844	-1334.283325195312	934.7095947265625	-200.7343902587891	-1216.238525390625	929.4730224609375	-450.3462829589844	-1271.045288085938	461.1182250976562	-430.2295837402344	-1254.255126953125	627.7782592773438	-472.17919921875	-1473.022827148438	32.42633056640625	-500.184326171875	-1392.0126953125	233.9911041259766	-481.4583129882812	-1303.424072265625	55.55368804931641	-366.7164306640625	-1383.92431640625	45.11189270019531	-360.6297607421875	-1356.412231445312	44.95359420776367	-462.5223388671875	-1557.74169921875	19.95493507385254	-476.2943115234375	-1266.726806640625	480.2356567382812	-175.0276641845703	-1361.381958007812	758.3101806640625	-160.3672332763672	-1512.208374023438	78.18227386474609	-273.4390258789062	-1304.540405273438	338.8675537109375	-200.8102569580078	-1295.097412109375	62.93057632446289	-232.1541137695312	-1338.50146484375	59.97225189208984	-293.8122863769531	-1397.442138671875	68.27610778808594	-208.5574951171875	-1543.331176757812	70.57327270507812	-344.3603515625	-1346.61474609375	711.033935546875	-99.25845336914062	nan	nan	nan	
116	1.15	-1495.3125	980.2241821289062	-335.0791015625	-1435.829956054688	990.2471923828125	-455.0628967285156	-1448.839111328125	1086.893188476562	-393.26416015625	-1190.973022460938	1236.813232421875	-317.5264282226562	-1434.842895507812	1213.2861328125	-392.9678039550781	-1339.08251953125	1474.402709960938	-363.8201293945312	-1188.2841796875	1347.795288085938	-323.3243103027344	-1454.35302734375	1369.030883789062	-305.8499145507812	-1354.834716796875	1425.220458984375	-461.111572265625	-1235.722534179688	1433.8515625	-509.5216369628906	-1238.030029296875	1317.794555664062	-600.363037109375	-1226.9150390625	1103.69287109375	-653.4644165039062	-1325.584228515625	1092.631225585938	-631.500244140625	-1126.637939453125	875.8317260742188	-579.320068359375	-1150.238403320312	845.1415405273438	-657.7581176757812	-1196.01806640625	1020.54638671875	-654.5783081054688	-1112.841674804688	712.9036865234375	-568.3028564453125	-1134.071411132812	788.0591430664062	-646.2067260742188	-1093.866821289062	803.0443115234375	-592.965576171875	-1336.118041992188	1435.1181640625	-200.1172332763672	-1387.041748046875	1379.144897460938	-143.9033050537109	-1466.357666015625	1102.847290039062	-101.8336486816406	-1517.222900390625	1094.75634765625	-139.9277954101562	-1353.674438476562	872.7339477539062	-112.104377746582	-1415.6162109375	856.8290405273438	-58.9405517578125	-1467.593994140625	1046.917602539062	-91.53778839111328	-1328.9580078125	788.3831787109375	-77.44261169433594	-1396.50341796875	786.2570190429688	-45.69296264648438	-1254.987060546875	1637.447387695312	-275.9642028808594	-1067.759033203125	1631.330810546875	-365.8352966308594	-1121.424682617188	1635.917358398438	-232.263427734375	-1186.766967773438	1629.591796875	-426.7548217773438	-1269.360717773438	905.7252197265625	-524.3507080078125	-1431.025512695312	901.3997192382812	-175.6513824462891	-1330.915893554688	932.8220825195312	-200.2890014648438	-1212.794555664062	927.9706420898438	-449.7956237792969	-1268.595947265625	459.7598266601562	-428.4634704589844	-1251.290161132812	626.339111328125	-470.8519287109375	-1472.940673828125	32.49062728881836	-500.0846252441406	-1390.875244140625	233.4983673095703	-480.6301879882812	-1303.539428710938	55.18451690673828	-366.1751708984375	-1384.095703125	44.72475814819336	-360.2070617675781	-1356.369750976562	44.80749893188477	-462.1345520019531	-1557.66943359375	20.0706672668457	-476.3355712890625	-1253.835571289062	482.4839782714844	-170.6033477783203	-1355.301025390625	758.4119262695312	-158.8487396240234	-1500.510864257812	81.93721008300781	-270.9207458496094	-1291.335571289062	341.330078125	-196.7720794677734	-1283.51025390625	65.09893035888672	-229.0936737060547	-1326.7216796875	62.65943145751953	-290.8851928710938	-1385.885864257812	71.01691436767578	-205.7648620605469	-1531.4326171875	74.88106536865234	-341.9757385253906	-1348.012817382812	709.1428833007812	-98.87526702880859	nan	nan	nan	
117	1.16	-1491.721069335938	978.8389892578125	-334.1998291015625	-1432.30908203125	989.2754516601562	-454.1878051757812	-1444.917846679688	1086.425537109375	-391.9900817871094	-1185.063354492188	1233.6142578125	-314.9576110839844	-1429.034423828125	1212.371459960938	-391.1132202148438	-1330.703979492188	1472.526123046875	-360.9470520019531	-1181.22705078125	1344.536987304688	-320.2883911132812	-1447.120849609375	1368.1103515625	-303.5089111328125	-1346.644775390625	1423.77197265625	-458.4735107421875	-1227.295043945312	1431.287231445312	-506.431640625	-1229.790649414062	1315.3505859375	-597.4349365234375	-1218.446166992188	1101.16162109375	-650.1544799804688	-1317.240844726562	1089.77197265625	-628.436279296875	-1116.620727539062	874.6522216796875	-574.3460083007812	-1139.963256835938	843.3096313476562	-652.5037231445312	-1187.078979492188	1018.295166015625	-650.7315063476562	-1101.6044921875	712.1865234375	-562.3314208984375	-1123.264282226562	786.4411010742188	-640.5900268554688	-1082.89453125	802.2461547851562	-587.5358276367188	-1328.549438476562	1432.928466796875	-197.3241577148438	-1380.194091796875	1377.446899414062	-141.3117065429688	-1462.648681640625	1101.912109375	-100.0129928588867	-1513.537841796875	1094.527221679688	-138.3102111816406	-1352.6171875	870.5675659179688	-110.4889831542969	-1414.848999023438	855.2679443359375	-57.58244323730469	-1464.488891601562	1046.077880859375	-89.89424133300781	-1328.856079101562	785.7190551757812	-76.21633911132812	-1396.682373046875	784.4228515625	-44.38254165649414	-1245.576293945312	1634.528198242188	-272.4548950195312	-1058.491333007812	1627.382202148438	-362.5025634765625	-1112.028198242188	1632.141723632812	-228.8601989746094	-1177.644165039062	1626.474853515625	-423.3148803710938	-1265.883666992188	904.37109375	-523.6730346679688	-1427.265869140625	900.0910034179688	-174.889892578125	-1327.211181640625	930.9226684570312	-199.8036193847656	-1209.24658203125	926.4765625	-449.3415222167969	-1266.2490234375	458.3985900878906	-426.872802734375	-1248.396240234375	624.9154663085938	-469.7352905273438	-1472.865844726562	32.52294921875	-500.0016784667969	-1389.7939453125	233.0054473876953	-479.9172973632812	-1303.612426757812	54.77904891967773	-365.7637634277344	-1384.218017578125	44.33056640625	-359.8468017578125	-1356.31396484375	44.61865997314453	-461.8317260742188	-1557.61572265625	20.18759155273438	-476.3616333007812	-1240.912109375	485.0095520019531	-166.0575256347656	-1349.029907226562	758.6189575195312	-157.1906280517578	-1487.703369140625	85.18247985839844	-267.8684692382812	-1277.757080078125	343.9461059570312	-192.5254821777344	-1270.755859375	67.4324951171875	-225.6497955322266	-1313.801879882812	65.37717437744141	-287.545166015625	-1373.152587890625	73.62582397460938	-202.5200653076172	-1518.431640625	78.52949523925781	-339.0354309082031	-1349.353149414062	707.2809448242188	-98.58294677734375	nan	nan	nan	
118	1.17	-1487.959350585938	977.4828491210938	-333.137451171875	-1428.694458007812	988.315673828125	-453.1590881347656	-1440.838745117188	1085.991943359375	-390.5646667480469	-1178.915893554688	1230.315795898438	-312.33154296875	-1422.946655273438	1211.41259765625	-389.1327514648438	-1322.026733398438	1470.59130859375	-357.9000549316406	-1173.912353515625	1341.162719726562	-317.1539611816406	-1439.59375	1367.131469726562	-300.9916076660156	-1338.181518554688	1422.302856445312	-455.6699523925781	-1218.593505859375	1428.688110351562	-503.1855163574219	-1221.329833984375	1312.863037109375	-594.3549194335938	-1209.731079101562	1098.580810546875	-646.5867309570312	-1308.705810546875	1086.894897460938	-625.2181396484375	-1106.440673828125	873.5734252929688	-568.751220703125	-1129.328369140625	841.4969482421875	-646.638671875	-1177.869262695312	1016.0205078125	-646.5123291015625	-1090.161376953125	711.5880126953125	-555.5626831054688	-1112.078979492188	784.8893432617188	-634.2481689453125	-1071.720458984375	801.5696411132812	-581.307861328125	-1320.649169921875	1430.596923828125	-194.3611602783203	-1373.022216796875	1375.61328125	-138.5537414550781	-1458.821411132812	1100.951171875	-98.06008911132812	-1509.708618164062	1094.319946289062	-136.5947113037109	-1351.510498046875	868.3944702148438	-108.85693359375	-1414.017944335938	853.6917724609375	-56.21442413330078	-1461.270874023438	1045.20703125	-88.18247985839844	-1328.7421875	783.035888671875	-75.01875305175781	-1396.817504882812	782.5687866210938	-43.11339950561523	-1235.958984375	1631.46337890625	-268.7024841308594	-1049	1623.40478515625	-358.9106750488281	-1102.425903320312	1628.259155273438	-225.2062835693359	-1168.279663085938	1623.305786132812	-419.6249084472656	-1262.352905273438	903.0684204101562	-523.0060424804688	-1423.12841796875	898.8262329101562	-173.9626159667969	-1323.157470703125	929.0068969726562	-199.2462615966797	-1205.630615234375	924.9557495117188	-448.9310302734375	-1263.998657226562	457.0408325195312	-425.4875793457031	-1245.564819335938	623.5194702148438	-468.82763671875	-1472.798706054688	32.51883697509766	-499.9378356933594	-1388.7763671875	232.5125122070312	-479.3439025878906	-1303.652099609375	54.32046508789062	-365.502197265625	-1384.290405273438	43.93782424926758	-359.5714721679688	-1356.2470703125	44.37590026855469	-461.6336364746094	-1557.582763671875	20.29128074645996	-476.376708984375	-1227.99658203125	487.7769470214844	-161.4110107421875	-1342.610107421875	758.8856811523438	-155.3846893310547	-1473.82177734375	87.86061859130859	-264.2729187011719	-1263.8603515625	346.6831970214844	-188.0710906982422	-1256.878784179688	69.87811279296875	-221.7482452392578	-1299.778198242188	68.06379699707031	-283.7323608398438	-1359.306884765625	76.06929016113281	-198.7711334228516	-1504.3583984375	81.44055938720703	-335.5360107421875	-1350.63037109375	705.4362182617188	-98.32321929931641	nan	nan	nan	
